# xmcd
#
# Track frame offsets: 
#        150
#        6977
#        13632
#        26161
#        30156
#        36382
#        40515
#        46457
#        52582
#        62670
#        69072
#        76597
#        79905
#        86205
#        95568
#        99897
#        117947
#        125104
#        132496
#        140495
#        148960
#        159197
#        170340
#        182325
#        198140
#        212771
#        218471
#        231448
#        237326
#
# Disc length: 3340 seconds
#
# Revision: 11
# Processed by: cddbd v1.5.2PL0 Copyright (c) Steve Scherf et al.
# Submitted via: ExactAudioCopyFreeDBPlugin 1.0
#
DISCID=7c0d0a1d
DTITLE=Hakon Austbo - Piano Works Vol.1 - Lyrische Stücke  (Håkon Aust
DTITLE=bø, piano)
DYEAR=2001
DGENRE=Classical
TTITLE0=Book I, Op.12 - Arietta
TTITLE1=Book I, Op.12 - Walzer
TTITLE2=Book I, Op.12 - Wächterlied
TTITLE3=Book I, Op.12 - Elfentanz
TTITLE4=Book I, Op.12 - Volksweise
TTITLE5=Book I, Op.12 - Norwegisch
TTITLE6=Book I, Op.12 - Albumblatt
TTITLE7=Book I, Op.12 - Vaterländisches Lied
TTITLE8=Book II, Op.38 - Berceuse
TTITLE9=Book II, Op.38 - Volksweise
TTITLE10=Book II, Op.38 - Melodie
TTITLE11=Book II, Op.38 - Norwegischer Tanz
TTITLE12=Book II, Op.38 - Springtanz
TTITLE13=Book II, Op.38 - Elegie
TTITLE14=Book II, Op.38 - Walzer
TTITLE15=Book II, Op.38 - Kanon
TTITLE16=Book III, Op.43 - Schmetterling
TTITLE17=Book III, Op.43 - Einsamer Wanderer
TTITLE18=Book III, Op.43 - In der Heimat
TTITLE19=Book III, Op.43 - Vöglein
TTITLE20=Book III, Op.43 - Erotik
TTITLE21=Book III, Op.43 - An der Frühling
TTITLE22=Book IV, Op.47 - Valse-Impromptu
TTITLE23=Book IV, Op.47 - Albumblatt
TTITLE24=Book IV, Op.47 - Melodie
TTITLE25=Book IV, Op.47 - Norwegischer Tanz
TTITLE26=Book IV, Op.47 - Melancholie
TTITLE27=Book IV, Op.47 - Springtanz
TTITLE28=Book IV, Op.47 - Elegie
EXTD=YEAR: 2001
EXTT0=
EXTT1=
EXTT2=
EXTT3=
EXTT4=
EXTT5=
EXTT6=
EXTT7=
EXTT8=
EXTT9=
EXTT10=
EXTT11=
EXTT12=
EXTT13=
EXTT14=
EXTT15=
EXTT16=
EXTT17=
EXTT18=
EXTT19=
EXTT20=
EXTT21=
EXTT22=
EXTT23=
EXTT24=
EXTT25=
EXTT26=
EXTT27=
EXTT28=
PLAYORDER=
